<svg width="27" height="17" viewBox="0 0 27 17" fill="none" xmlns="http://www.w3.org/2000/svg">
<path d="M4.02065 3.75589C4.30906 3.58815 4.61867 3.50064 4.94101 3.50064C6.34912 3.50064 7.52395 5.22179 7.79115 7.50449L9.78456 6.80437C9.3265 2.92449 7.33309 0 4.94101 0C4.39388 0 3.86797 0.153153 3.37598 0.43758L4.02065 3.75589Z" fill="#FFF100"/>
<path d="M1.66682 14.8703L3.01555 12.2448C2.41329 11.3259 2.03582 9.99128 2.03582 8.49621C2.03582 7.00844 2.41329 5.66653 3.01555 4.7549L1.66682 2.13672C0.644675 3.69742 0 5.96554 0 8.5035C0 11.0342 0.644675 13.3096 1.66682 14.8703Z" fill="#00A3DF"/>
<path d="M7.79124 9.50293C7.5198 11.7856 6.34921 13.4995 4.9411 13.4995C4.61876 13.4995 4.30915 13.412 4.0165 13.2442L3.37183 16.5626C3.86382 16.847 4.39398 17.0001 4.9411 17.0001C7.33319 17.0001 9.32659 14.0829 9.78465 10.2031L7.79124 9.50293Z" fill="#EE4023"/>
<path d="M16.4265 11.851C16.0957 12.4053 15.6504 12.7408 15.1584 12.7262C14.8191 12.7189 14.5052 12.5439 14.2422 12.2521L13.5806 14.0608C14.0344 14.5494 14.5646 14.8412 15.1414 14.8557C15.9769 14.8776 16.7404 14.3088 17.296 13.3826L16.4265 11.851ZM15.2305 4.4778C13.5679 4.43404 12.1937 6.72405 12.1683 9.5829C12.1598 10.655 12.3379 11.6614 12.656 12.4928L18.1188 8.47437C17.8134 6.22083 16.6428 4.52156 15.2305 4.4778ZM13.4194 9.99131C13.411 9.87462 13.4067 9.75064 13.4067 9.62666C13.4237 7.94198 14.2295 6.59277 15.2093 6.62194C15.7437 6.63653 16.2187 7.05223 16.5368 7.7086L13.4194 9.99131ZM19.8365 2.14404V12.1573L20.8459 12.8793L20.3667 14.8557L19.3657 14.141C19.1409 13.9733 18.9882 13.718 18.8737 13.4263C18.7635 13.1346 18.6786 12.7262 18.6786 12.1865V2.14404H19.8365Z" fill="black"/>
<path d="M23.4799 6.77486C23.658 6.67276 23.8446 6.62171 24.044 6.62171C24.9049 6.62171 25.6175 7.6719 25.7829 9.06487L27.0001 8.63458C26.7202 6.26435 25.503 4.48486 24.044 4.48486C23.7089 4.48486 23.3866 4.57967 23.0897 4.74741L23.4799 6.77486ZM22.0421 13.5501L22.8649 11.9529C22.4959 11.3913 22.2669 10.5745 22.2669 9.66289C22.2669 8.75127 22.5001 7.93445 22.8649 7.38018L22.0421 5.78302C21.4186 6.73111 21.0242 8.12407 21.0242 9.67018C21.0242 11.2163 21.4186 12.602 22.0421 13.5501ZM25.7829 10.2828C25.6175 11.6758 24.9007 12.726 24.044 12.726C23.8489 12.726 23.658 12.6676 23.4799 12.5655L23.0854 14.593C23.3866 14.768 23.7089 14.8628 24.044 14.8628C25.503 14.8628 26.7202 13.0833 27.0001 10.7131L25.7829 10.2828Z" fill="black"/>
</svg>
