<svg width="27" height="17" viewBox="0 0 27 17" fill="none" xmlns="http://www.w3.org/2000/svg">
<path d="M9.90015 16.5561L11.2716 0.535156H13.4144L12.0859 16.5561H9.90015Z" fill="#3C58BF"/>
<path d="M9.90015 16.5561L11.6573 0.535156H13.4144L12.0859 16.5561H9.90015Z" fill="#293688"/>
<path d="M19.8428 0.712043C19.4142 0.356022 18.7285 0 17.8714 0C15.7285 0 14.1856 2.22513 14.1856 5.42932C14.1856 7.83246 15.2571 9.07854 16.1142 9.87959C16.9714 10.6806 17.2285 11.2147 17.2285 11.9267C17.2285 12.9948 16.5428 13.5288 15.9428 13.5288C15.0856 13.5288 14.6142 13.2618 13.8856 12.6387L13.5856 12.3717L13.2856 16.021C13.7999 16.466 14.7428 16.911 15.7285 16.911C17.9999 16.911 19.4999 14.6859 19.4999 11.3037C19.4999 9.43456 18.9428 8.01048 17.6571 6.85341C16.8856 6.05236 16.4142 5.60733 16.4142 4.80628C16.4142 4.09424 16.7999 3.3822 17.6571 3.3822C18.3856 3.3822 18.8999 3.64922 19.2856 4.00524L19.4999 4.18325L19.8428 0.712043Z" fill="#3C58BF"/>
<path d="M19.8428 0.712043C19.4142 0.356022 18.7285 0 17.8714 0C15.7285 0 14.5714 2.22513 14.5714 5.42932C14.5714 7.83246 15.2571 9.07854 16.1142 9.87959C16.9714 10.6806 17.2285 11.2147 17.2285 11.9267C17.2285 12.9948 16.5428 13.5288 15.9428 13.5288C15.0856 13.5288 14.6142 13.2618 13.8856 12.6387L13.5856 12.3717L13.2856 16.021C13.7999 16.466 14.7428 16.911 15.7285 16.911C17.9999 16.911 19.4999 14.6859 19.4999 11.3037C19.4999 9.43456 18.9428 8.01048 17.6571 6.85341C16.8856 6.05236 16.4142 5.60733 16.4142 4.80628C16.4142 4.09424 16.7999 3.3822 17.6571 3.3822C18.3856 3.3822 18.8999 3.64922 19.2856 4.00524L19.4999 4.18325L19.8428 0.712043Z" fill="#293688"/>
<path d="M23.5285 0.535156C23.0142 0.535156 22.6285 0.624161 22.4142 1.69222L19.2 16.5561H21.5142L21.9428 13.8859H24.6857L24.9428 16.5561H27L25.2 0.535156H23.5285ZM22.5428 11.2158C22.6714 10.4147 23.4 6.49851 23.4 6.49851C23.4 6.49851 23.5714 5.51945 23.7 4.89641L23.8285 6.4095C23.8285 6.4095 24.2571 10.4147 24.3428 11.3048H22.5428V11.2158Z" fill="#3C58BF"/>
<path d="M24.0428 0.535156C23.5285 0.535156 23.1428 0.624161 22.9285 1.69222L19.2 16.5561H21.5142L21.9428 13.8859H24.6857L24.9428 16.5561H27L25.2 0.535156H24.0428ZM22.5428 11.2158C22.7142 10.3257 23.4 6.49851 23.4 6.49851C23.4 6.49851 23.5714 5.51945 23.7 4.89641L23.8285 6.4095C23.8285 6.4095 24.2571 10.4147 24.3428 11.3048H22.5428V11.2158Z" fill="#293688"/>
<path d="M5.95696 11.7497L5.74268 9.43555C5.35696 6.76539 4.1141 3.82821 2.74268 2.40413L4.67125 16.645H6.98553L10.457 0.624023H8.14268L5.95696 11.7497Z" fill="#3C58BF"/>
<path d="M5.95696 11.7497L5.74268 9.43555C5.35696 6.76539 4.1141 3.82821 2.74268 2.40413L4.67125 16.645H6.98553L10.457 0.624023H8.57125L5.95696 11.7497Z" fill="#293688"/>
<path d="M0 0.535156L0.385714 0.713167C3.12857 2.04825 5.01429 5.43044 5.74286 9.43568L4.97143 1.87023C4.84286 0.802172 4.45714 0.535156 3.98571 0.535156H0Z" fill="#FFBC00"/>
<path d="M0 0.535156C2.74286 1.87024 5.01429 5.34144 5.74286 9.34668L5.01429 3.0273C4.88571 1.95924 4.45714 1.3362 3.98571 1.3362L0 0.535156Z" fill="#F7981D"/>
<path d="M0 0.535156C2.74286 1.87024 5.01429 5.34144 5.74286 9.34668L5.22857 5.87547C5.1 4.80741 4.92857 3.73935 4.32857 3.29432L0 0.535156Z" fill="#ED7C00"/>
<path d="M8.09993 11.2155L6.64279 8.18929L5.95707 11.5715L5.78564 9.34636C5.39993 6.6762 4.15707 3.73903 2.78564 2.31494L4.71422 16.5558H7.0285L8.09993 11.2155Z" fill="#051244"/>
<path d="M12.0859 16.5554L10.243 12.6392L9.90015 16.5554H12.0859Z" fill="#051244"/>
<path d="M17.0142 11.0371C17.1856 11.3931 17.2714 11.6601 17.2285 12.0162C17.2285 13.0842 16.5428 13.6183 15.9428 13.6183C15.0856 13.6183 14.6142 13.3512 13.8856 12.7282L13.5856 12.4612L13.2856 16.1104C13.7999 16.5554 14.7428 17.0005 15.7285 17.0005C17.0999 17.0005 18.2142 16.1994 18.8571 14.7753L17.0142 11.0371Z" fill="#051244"/>
<path d="M19.5 16.5537H21.5143L21.9429 13.8836H24.6857L24.9429 16.5537H27L26.2714 10.0563L23.7 4.89404L23.8286 6.31813C23.8286 6.31813 24.2571 10.3234 24.3429 11.2134H22.5429C22.7143 10.3234 23.4 6.49614 23.4 6.49614C23.4 6.49614 23.5714 5.51708 23.7 4.89404" fill="#051244"/>
</svg>
